# xmcd
#
# Track frame offsets:
#  150
#  13281
#  23781
#  41047
#  49901
#  59647
#  76074
#  96112
#  115688
#  132997
#  144768
#  168515
#  197559
#  212795
#  226965
#  239817
#  263194
#  295192
#  307483
#  328659
#
# Disc length: 4580 seconds
#
# Revision: 0
# Processed by: cddbd v1.5.1PL0 Copyright (c) Steve Scherf et al.
# Submitted via: Collectorz.com Music Collector 6.9
#
DISCID=2c11e214
DTITLE=Various Artist - Honky Tonk 10
DYEAR=1900
DGENRE=
TTITLE0=Honky Tonk Heroes - Honky Tonk Heroes
TTITLE1=Honky Tonk Heroes - Ain't No God in Mexico
TTITLE2=Honky Tonk Heroes - Easy Come Easy Go
TTITLE3=Honky Tonk Heroes - I Couldn't Be Me Without You
TTITLE4=Honky Tonk Heroes - I'm Just An Old Chunk of Coal
TTITLE5=Honky Tonk Heroes - Oklahoma Wind
TTITLE6=Honky Tonk Heroes - Tramp on Your Street
TTITLE7=Honky Tonk Heroes - We Are the Cowboys
TTITLE8=Honky Tonk Heroes - Willie the Wandering Gypsy
TTITLE9=Honky Tonk Heroes - You Asked Me To
TTITLE10=Kris Kristofferson and Steve Earle - Sunday Morning Coming Down
TTITLE11=Elliott Murphy - Henry
TTITLE12=Elliott Murphy - Small Room
TTITLE13=Elliott Murphy - All
TTITLE14=Elliott Murphy - Route 66
TTITLE15=Elliott Murphy - Somebody
TTITLE16=Elliott Murphy - Stone
TTITLE17=Elliott Murphy - Twist
TTITLE18=Elliott Murphy - Wyoming
TTITLE19=Dwight Yoakam - Dance Little Sister
EXTD=
EXTT0=
EXTT1=
EXTT2=
EXTT3=
EXTT4=
EXTT5=
EXTT6=
EXTT7=
EXTT8=
EXTT9=
EXTT10=
EXTT11=
EXTT12=
EXTT13=
EXTT14=
EXTT15=
EXTT16=
EXTT17=
EXTT18=
EXTT19=
PLAYORDER=
